# xmcd
#
# Track frame offsets:
#	150
#	20483
#	39500
#	52607
#	72452
#	89525
#	108779
#	127826
#	140511
#	163910
#	183155
#
# Disc length: 2665 seconds
#
# Revision: 2
# Processed by: cddbd v1.5.2PL0 Copyright (c) Steve Scherf et al.
# Submitted via: dBpowerAMP V4.0
#
DISCID=8b0a670b
DTITLE=周杰伦 - 魔杰座
DYEAR=2008
DGENRE=Pop
TTITLE0=龙战骑士
TTITLE1=给我一首歌的时间
TTITLE2=蛇舞
TTITLE3=花海
TTITLE4=魔术先生
TTITLE5=说好的幸福呢
TTITLE6=兰亭序
TTITLE7=流浪诗人
TTITLE8=时光机
TTITLE9=乔克叔叔
TTITLE10=稻香
EXTD=KIDD
EXTT0=
EXTT1=
EXTT2=
EXTT3=
EXTT4=
EXTT5=
EXTT6=
EXTT7=
EXTT8=
EXTT9=
EXTT10=
PLAYORDER=
